# xmcd CD database file
#
# Track frame offsets:
#	225
#	27745
#	42012
#	64383
#	84843
#	99890
#	120679
#	131775
#	153217
#	171187
#	183966
#	209046
#	225845
#
# Disc length: 3311 seconds
#
# Revision: 0
# Processed by: cddbd v1.5.2PL0 Copyright (c) Steve Scherf et al.
# Submitted via: CDex 1.51
#
DISCID=a70cec0d
DTITLE=Carl Anderson and his New Orleans Jazz Band - Carl Anderson and his New Orleans Jazz Band
DYEAR=1900
DGENRE=Jazz
TTITLE0=Back Home Again in Indiana
TTITLE1=It's A Sin to Tell A Lie
TTITLE2=New Orleans
TTITLE3=Struttin' With Some Bar-B-Q
TTITLE4=My Blue Heaven
TTITLE5=Basin Street Blues
TTITLE6=Blue Prelude
TTITLE7=Sheik of Araby
TTITLE8=I Can't Give You Anything But Love
TTITLE9=Alabama Jubilee
TTITLE10=St. James Infirmary
TTITLE11=Bei Mir Bist Du Schon
TTITLE12=Just A Closer Walk
EXTD=
EXTT0=
EXTT1=
EXTT2=
EXTT3=
EXTT4=
EXTT5=
EXTT6=
EXTT7=
EXTT8=
EXTT9=
EXTT10=
EXTT11=
EXTT12=
PLAYORDER=
